<svg width="107" height="107" viewBox="0 0 107 107" fill="none" xmlns="http://www.w3.org/2000/svg">
<path d="M53.5001 26.7002C38.7224 26.7002 26.7003 38.7247 26.7003 53.5024C26.7003 68.28 38.7224 80.3045 53.5001 80.3045C68.2754 80.3045 80.2998 68.2824 80.2998 53.5024C80.2998 38.7223 68.2754 26.7002 53.5001 26.7002Z" fill="#FFB800"/>
<path d="M53.5 18.8221C50.6118 18.8221 48.2709 16.4812 48.2709 13.5954V5.22916C48.2709 2.34092 50.6118 0 53.5 0C56.3883 0 58.7292 2.34092 58.7292 5.22916V13.5954C58.7292 16.4812 56.3859 18.8221 53.5 18.8221Z" fill="#FFB800"/>
<path d="M53.5 88.1755C50.6118 88.1755 48.2709 90.5164 48.2709 93.4047V101.768C48.2709 104.659 50.6118 107 53.5 107C56.3883 107 58.7292 104.659 58.7292 101.768V93.4047C58.7292 90.5164 56.3859 88.1755 53.5 88.1755Z" fill="#FFB800"/>
<path d="M78.018 28.9796C75.978 26.9372 75.978 23.6272 78.018 21.5848L83.9343 15.6685C85.9743 13.6285 89.2867 13.6285 91.3291 15.6685C93.3715 17.7109 93.3715 21.0233 91.3291 23.0633L85.4128 28.9796C83.3728 31.022 80.0628 31.022 78.018 28.9796Z" fill="#FFB800"/>
<path d="M28.9796 78.0228C26.9372 75.9781 23.6273 75.9781 21.5849 78.0228L15.6686 83.9367C13.6286 85.9767 13.6262 89.2914 15.6686 91.3315C17.711 93.3715 21.0233 93.3715 23.0633 91.3315L28.9796 85.4128C31.022 83.3728 31.022 80.0604 28.9796 78.0228Z" fill="#FFB800"/>
<path d="M88.1754 53.5C88.1754 50.6118 90.5163 48.2708 93.4046 48.2708H101.771C104.659 48.2708 107 50.6118 107 53.5C107 56.3882 104.659 58.7268 101.771 58.7268H93.4046C90.5163 58.7268 88.1754 56.3882 88.1754 53.5Z" fill="#FFB800"/>
<path d="M18.8221 53.5C18.8221 50.6118 16.4812 48.2708 13.593 48.2708H5.22916C2.34092 48.2708 0 50.6118 0 53.5C0 56.3882 2.34092 58.7268 5.22916 58.7268H13.5954C16.4812 58.7268 18.8221 56.3882 18.8221 53.5Z" fill="#FFB800"/>
<path d="M78.0181 78.0228C80.0605 75.9828 83.3729 75.9828 85.4129 78.0228L91.3291 83.9391C93.3715 85.9767 93.3715 89.2915 91.3291 91.3315C89.2868 93.3715 85.9768 93.3715 83.9344 91.3315L78.0181 85.4152C75.9757 83.3728 75.9757 80.0628 78.0181 78.0228Z" fill="#FFB800"/>
<path d="M28.9797 28.9796C31.022 26.9372 31.022 23.6272 28.9797 21.5848L23.0634 15.6709C21.021 13.6285 17.711 13.6285 15.6686 15.6709C13.6262 17.7109 13.6262 21.0233 15.6686 23.0633L21.5849 28.9796C23.6273 31.0243 26.9373 31.0243 28.9797 28.9796Z" fill="#FFB800"/>
</svg>
