<svg width="93" height="93" viewBox="0 0 93 93" fill="none" xmlns="http://www.w3.org/2000/svg">
<g clip-path="url(#clip0)">
<path d="M0.13708 56.1374C-0.407287 54.2064 0.716867 52.1997 2.64785 51.6553C12.793 48.7951 21.5743 47.813 30.2833 48.5644C32.282 48.7368 33.7625 50.497 33.5901 52.4959C33.4178 54.4949 31.6606 55.9759 29.6584 55.803C21.7439 55.1202 14.0211 55.9977 4.61898 58.6482C4.28949 58.7412 3.95764 58.7853 3.63124 58.7853C2.04591 58.7855 0.588812 57.7389 0.13708 56.1374V56.1374ZM57.0397 76.2885C58.8561 76.2885 60.4256 74.9282 60.643 73.0798C60.8774 71.0873 59.4522 69.2818 57.4597 69.0475C52.7465 68.4929 48.5276 67.5997 44.4477 66.7358C38.4235 65.4603 32.7335 64.2555 25.8657 64.1189C18.8661 63.9803 11.2698 65.0934 2.64804 67.5241C0.717048 68.0685 -0.407106 70.0752 0.137261 72.0062C0.68181 73.9373 2.68872 75.0615 4.61953 74.5169C12.6528 72.2523 19.3576 71.2575 25.7214 71.3832C31.9015 71.5061 37.2649 72.6415 42.943 73.8438C47.1826 74.7415 54.4921 76.2885 57.0397 76.2885V76.2885ZM4.61935 26.1816C22.3092 21.1945 32.0101 23.1666 43.2431 25.4501C47.3946 26.294 55.0372 27.7713 57.0397 27.7713C58.8561 27.7713 60.4256 26.411 60.643 24.5627C60.8774 22.5701 59.4522 20.7646 57.4597 20.5303C52.8379 19.9865 48.696 19.1444 44.6906 18.3301C33.038 15.9612 22.0317 13.7238 2.64804 19.1885C0.717048 19.7329 -0.407106 21.7396 0.137261 23.6706C0.681629 25.602 2.68854 26.7267 4.61935 26.1816V26.1816ZM3.63178 10.4698C3.95819 10.4698 4.28986 10.4254 4.61953 10.3326C14.0216 7.68217 21.7443 6.80468 29.659 7.48746C31.661 7.66147 33.4181 6.17931 33.5907 4.18039C33.7633 2.18147 32.2825 0.421216 30.2838 0.248842C21.5748 -0.502955 12.7936 0.479522 2.6484 3.33977C0.717048 3.88413 -0.407287 5.89087 0.13708 7.82185C0.588812 9.42335 2.04591 10.4699 3.63178 10.4698V10.4698ZM45.9617 10.3081C52.2309 11.5758 58.9838 12.7177 67.5193 12.7177C73.8653 12.7177 81.198 12.086 90.0447 10.4051C92.0158 10.0306 93.31 8.12918 92.9354 6.15805C92.5607 4.18692 90.6584 2.89276 88.6884 3.26729C69.2354 6.96343 57.6257 5.25423 47.4017 3.18683C45.4365 2.7885 43.5186 4.06105 43.121 6.02746C42.7232 7.99386 43.9951 9.9105 45.9617 10.3081V10.3081ZM88.6884 34.9387C80.2668 36.5389 73.0672 37.2909 66.6927 37.2362C57.9014 37.1616 51.1543 35.7334 44.6292 34.3522C41.0175 33.5879 37.6063 32.8657 33.9098 32.3649C31.9214 32.0955 30.0916 33.4889 29.8221 35.4769C29.5529 37.4651 30.9461 39.2951 32.9343 39.5645C36.3645 40.0293 39.6481 40.7242 43.1247 41.4602C50.0005 42.9157 57.5045 44.4207 67.0251 44.5015C73.704 44.5015 81.454 43.7087 90.0445 42.0763C92.0156 41.7018 93.3098 39.8004 92.9353 37.8293C92.5607 35.8583 90.6584 34.5636 88.6884 34.9387V34.9387ZM88.6884 51.5829C69.2354 55.2792 57.6257 53.5696 47.4017 51.5024C45.4365 51.1046 43.5186 52.3766 43.121 54.343C42.7234 56.3094 43.9953 58.2261 45.9618 58.6237C52.2311 59.8913 58.984 61.0333 67.5195 61.0333C73.8655 61.0333 81.1982 60.4015 90.0449 58.7207C92.016 58.3461 93.3102 56.4447 92.9356 54.4736C92.5607 52.5025 90.6584 51.2076 88.6884 51.5829V51.5829ZM88.6884 83.5511C67.312 87.6128 55.7238 85.2049 44.5165 82.8765C40.9421 82.1337 37.5658 81.4322 33.9098 80.9369C31.9214 80.6679 30.0916 82.0609 29.8221 84.0489C29.5529 86.0371 30.9461 87.8671 32.9343 88.1365C36.3374 88.5977 39.5924 89.2739 43.0386 89.9899C49.9864 91.4334 57.5004 92.9947 67.5155 92.9947C73.8584 92.9947 81.2053 92.3683 90.0445 90.6887C92.0156 90.3141 93.3098 88.4128 92.9353 86.4416C92.5607 84.4707 90.6584 83.1762 88.6884 83.5511V83.5511ZM88.6884 67.3853C82.1498 68.6277 76.7278 69.343 72.1125 69.572C70.1087 69.6714 68.565 71.3766 68.6643 73.3804C68.7608 75.3231 70.3659 76.8332 72.2896 76.8332C72.3503 76.8332 72.4115 76.8317 72.4727 76.8287C77.426 76.5827 83.1737 75.8287 90.0447 74.5231C92.0158 74.1486 93.31 72.2472 92.9354 70.2761C92.5607 68.3049 90.6584 67.0106 88.6884 67.3853V67.3853ZM72.2925 28.5174C76.8767 28.29 82.312 27.5417 90.0445 26.0724C92.0156 25.6979 93.3098 23.7965 92.9353 21.8254C92.5606 19.8542 90.6583 18.5599 88.6882 18.9346C81.3019 20.3381 76.3447 21.0265 72.1124 21.2365C70.1085 21.3359 68.5648 23.0411 68.6642 25.0449C68.7608 26.9875 70.369 28.5174 72.2925 28.5174V28.5174ZM14.9334 80.9789C11.0281 81.5287 7.00951 82.3938 2.64785 83.6235C0.716867 84.1679 -0.407287 86.1746 0.13708 88.1056C0.58863 89.7071 2.04591 90.7535 3.6316 90.7535C3.958 90.7535 4.28967 90.7092 4.61935 90.6164C8.66314 89.4764 12.3682 88.6774 15.9466 88.1735C17.9334 87.8938 19.3171 86.0566 19.0374 84.0698C18.7576 82.0829 16.9182 80.6997 14.9334 80.9789V80.9789ZM14.9334 32.5489C11.2477 33.0678 7.20822 33.7254 2.64785 35.011C0.716867 35.5554 -0.407287 37.5621 0.13708 39.4931C0.58863 41.0946 2.04591 42.1412 3.6316 42.1412C3.958 42.1412 4.28967 42.0968 4.61935 42.0038C8.76431 40.8354 12.5131 40.2269 15.9466 39.7434C17.9334 39.4636 19.3171 37.6264 19.0374 35.6396C18.7576 33.6527 16.9182 32.269 14.9334 32.5489V32.5489Z" fill="white"/>
</g>
<defs>
<clipPath id="clip0">
<rect width="93" height="93" fill="white"/>
</clipPath>
</defs>
</svg>
