<svg width="134" height="90" viewBox="0 0 134 90" fill="none" xmlns="http://www.w3.org/2000/svg">
<rect y="32.1042" width="134" height="35.3611" rx="17.6806" fill="#BCBCBC"/>
<rect x="33.0347" width="67.4653" height="67.4653" rx="33.7326" fill="#BCBCBC"/>
<g clip-path="url(#clip0)">
<path d="M20.0687 72.3801L20.0687 72.3801L20.0732 72.3853L20.0901 72.405C21.32 73.8286 22.7535 75.4878 23.8832 77.1669C25.0298 78.8712 25.8 80.5066 25.8 81.877C25.8 83.6551 25.0634 85.292 23.8937 86.4617L23.891 86.4644C22.7243 87.6491 21.1089 88.3681 19.309 88.3681C17.5122 88.3681 15.8944 87.6319 14.7242 86.4617L14.7215 86.459C13.5368 85.2923 12.8179 83.6769 12.8179 81.877C12.8179 80.5064 13.5883 78.866 14.7349 77.1594C15.8693 75.4708 17.3107 73.804 18.5432 72.3871C18.8085 72.0839 19.0679 71.7863 19.3146 71.4957C19.5552 71.7753 19.8075 72.0691 20.0687 72.3801Z" fill="#5A92FF" stroke="#5A92FF"/>
</g>
<g clip-path="url(#clip1)">
<path d="M67.5271 72.3801L67.527 72.3801L67.5316 72.3853L67.5485 72.405C68.7784 73.8286 70.2119 75.4878 71.3416 77.1669C72.4882 78.8712 73.2584 80.5066 73.2584 81.877C73.2584 83.6551 72.5218 85.292 71.3521 86.4617L71.3494 86.4644C70.1826 87.6491 68.5672 88.3681 66.7673 88.3681C64.9705 88.3681 63.3528 87.6319 62.1826 86.4617L62.1799 86.459C60.9952 85.2923 60.2762 83.6769 60.2762 81.877C60.2762 80.5064 61.0467 78.866 62.1932 77.1594C63.3277 75.4708 64.7691 73.804 66.0016 72.3871C66.2669 72.0839 66.5263 71.7863 66.773 71.4957C67.0136 71.7753 67.2659 72.0691 67.5271 72.3801Z" fill="#5A92FF" stroke="#5A92FF"/>
</g>
<g clip-path="url(#clip2)">
<path d="M114.833 72.6578L114.833 72.6579L114.837 72.6631L114.854 72.6828C116.084 74.1063 117.517 75.7655 118.647 77.4447C119.794 79.149 120.564 80.7844 120.564 82.1547C120.564 83.9329 119.827 85.5698 118.658 86.7395L118.655 86.7422C117.488 87.9269 115.873 88.6458 114.073 88.6458C112.276 88.6458 110.658 87.9097 109.488 86.7395L109.485 86.7368C108.301 85.5701 107.582 83.9547 107.582 82.1547C107.582 80.7841 108.352 79.1437 109.499 77.4372C110.633 75.7486 112.075 74.0818 113.307 72.6649C113.572 72.3616 113.832 72.0641 114.079 71.7735C114.319 72.0531 114.571 72.3469 114.833 72.6578Z" fill="#5A92FF" stroke="#5A92FF"/>
</g>
<defs>
<clipPath id="clip0">
<rect width="18.1458" height="18.1458" fill="white" transform="translate(10.2361 70.7222)"/>
</clipPath>
<clipPath id="clip1">
<rect width="18.1458" height="18.1458" fill="white" transform="translate(57.6945 70.7222)"/>
</clipPath>
<clipPath id="clip2">
<rect width="18.1458" height="18.1458" fill="white" transform="translate(105 71)"/>
</clipPath>
</defs>
</svg>
