<svg width="130" height="130" viewBox="0 0 130 130" fill="none" xmlns="http://www.w3.org/2000/svg">
<path d="M119.668 91.4403L106.464 83.817L117.907 77.0698C120.017 75.8253 120.719 73.1056 119.475 70.9951C118.23 68.8853 115.511 68.1831 113.4 69.4271L97.638 78.7213L73.8722 64.9997L97.6339 51.2805L113.401 60.5735C114.108 60.9905 114.884 61.1881 115.649 61.1881C117.168 61.1881 118.647 60.4073 119.475 59.0037C120.719 56.8932 120.016 54.1735 117.906 52.929L106.461 46.1842L119.668 38.5592C121.79 37.3342 122.517 34.621 121.292 32.4993C120.067 30.377 117.354 29.65 115.232 30.8756L102.028 38.4994L101.908 25.2138C101.886 22.7638 99.8762 20.7841 97.4322 20.8178C94.9822 20.8397 93.0137 22.8436 93.0362 25.2936L93.2012 43.5952L69.4366 57.3161V29.8766L85.3698 20.8716C87.5027 19.6661 88.2545 16.96 87.049 14.8265C85.8436 12.6935 83.1369 11.9412 81.0039 13.1472L69.4366 19.685V4.43623C69.4366 1.98625 67.4503 0 65.0003 0C62.5504 0 60.5641 1.98625 60.5641 4.43623V19.685L48.9968 13.1478C46.8627 11.9418 44.1577 12.6935 42.9517 14.8271C41.7462 16.96 42.498 19.6667 44.6309 20.8722L60.5635 29.8772V57.3161L36.7989 43.5952L36.9639 25.2936C36.9864 22.8436 35.0179 20.8397 32.5679 20.8178C32.5543 20.8178 32.5413 20.8178 32.5271 20.8178C30.0961 20.8178 28.114 22.7774 28.0921 25.2144L27.972 38.4994L14.768 30.8756C12.6463 29.65 9.93308 30.3776 8.70809 32.4993C7.4831 34.621 8.21005 37.3342 10.3317 38.5592L23.5381 46.1842L12.092 52.9302C9.98158 54.1741 9.27888 56.8938 10.5228 59.0049C11.3503 60.4085 12.8296 61.1893 14.3492 61.1893C15.1146 61.1893 15.8901 60.9911 16.5975 60.5747L32.3662 51.2817L56.1285 65.0009L32.3621 78.7225L16.5975 69.4265C14.4882 68.1826 11.7673 68.8841 10.5228 70.9945C9.27829 73.105 9.9804 75.8247 12.0909 77.0686L23.5352 83.8164L10.3312 91.4397C8.20945 92.6646 7.4825 95.3779 8.7075 97.4996C9.52909 98.9227 11.0203 99.7183 12.5534 99.7183C13.3058 99.7183 14.0688 99.5266 14.7674 99.1232L27.9714 91.4994L28.0915 104.786C28.1134 107.222 30.0955 109.182 32.5265 109.182C32.5401 109.182 32.5537 109.182 32.5673 109.182C35.0173 109.16 36.9858 107.156 36.9634 104.706L36.7983 86.4036L60.5635 72.6827V100.123L44.6309 109.128C42.498 110.333 41.7462 113.039 42.9517 115.173C43.7673 116.616 45.2703 117.427 46.8177 117.427C47.5571 117.427 48.3071 117.242 48.9968 116.852L60.5641 110.315V125.564C60.5641 128.014 62.5504 130 65.0003 130C67.4503 130 69.4366 128.014 69.4366 125.564V110.315L81.0039 116.852C81.6936 117.242 82.443 117.427 83.183 117.427C84.7304 117.427 86.2334 116.616 87.049 115.173C88.2545 113.04 87.5027 110.333 85.3698 109.128L69.4366 100.123V72.6833L93.2012 86.4036L93.032 104.705C93.009 107.155 94.9769 109.16 97.4269 109.182C97.4411 109.183 97.4547 109.183 97.4689 109.183C99.8993 109.183 101.881 107.223 101.904 104.787L102.027 91.4994L115.233 99.1238C115.931 99.5272 116.694 99.7189 117.447 99.7189C118.98 99.7189 120.471 98.9227 121.293 97.5001C122.518 95.3784 121.791 92.6652 119.668 91.4403Z" fill="white"/>
</svg>
