<svg width="204" height="204" viewBox="0 0 204 204" fill="none" xmlns="http://www.w3.org/2000/svg">
<path d="M114.462 15.344L114.467 15.3493L114.75 15.6765C128.519 31.6143 144.801 50.4599 157.674 69.5945C170.647 88.8775 180.096 108.364 180.096 125.404C180.096 146.819 171.227 166.506 157.164 180.569L157.161 180.571C143.102 194.847 123.635 203.5 102 203.5C80.3682 203.5 60.8989 194.632 46.836 180.569L46.8332 180.566C32.5574 166.506 23.9045 147.039 23.9045 125.404C23.9045 108.364 33.3528 88.8227 46.3259 69.5126C59.2872 50.2201 75.7042 31.2471 89.532 15.3506C93.957 10.2934 98.1831 5.43451 102.009 0.778113C102.979 1.9088 103.974 3.06528 104.992 4.2477C107.982 7.72124 111.165 11.4187 114.462 15.344Z" fill="#5A92FF" stroke="#5A92FF"/>
</svg>
