<svg width="75" height="75" viewBox="0 0 75 75" fill="none" xmlns="http://www.w3.org/2000/svg">
<g clip-path="url(#clip0)">
<path d="M4.50792 42.7643C4.8148 42.8141 5.12537 42.8371 5.4361 42.8331L58.3471 42.8331L57.1934 43.3697C56.0656 43.9035 55.0397 44.6299 54.1615 45.5162L39.3239 60.3538C37.3697 62.2192 37.0414 65.2201 38.5458 67.464C40.2967 69.8551 43.6544 70.3743 46.0457 68.6234C46.2389 68.4819 46.4225 68.3276 46.5951 68.1616L73.4261 41.3305C75.523 39.236 75.5248 35.8384 73.4303 33.7416C73.429 33.7402 73.4275 33.7387 73.4261 33.7374L46.5951 6.90631C44.4966 4.81365 41.0989 4.81834 39.0061 6.91687C38.8414 7.08205 38.6877 7.25779 38.5458 7.44292C37.0414 9.68684 37.3697 12.6877 39.3239 14.5532L54.1346 29.4176C54.9219 30.2057 55.8272 30.8666 56.8177 31.3762L58.4276 32.1007L5.73141 32.1007C2.99011 31.9989 0.585045 33.9138 0.0700607 36.6083C-0.40435 39.5337 1.5825 42.2898 4.50792 42.7643Z" fill="white"/>
</g>
<defs>
<clipPath id="clip0">
<rect width="75" height="75" fill="white" transform="translate(75 75) rotate(-180)"/>
</clipPath>
</defs>
</svg>
