<svg width="75" height="75" viewBox="0 0 75 75" fill="none" xmlns="http://www.w3.org/2000/svg">
<g clip-path="url(#clip0)">
<path d="M70.4921 32.2357C70.1852 32.1859 69.8746 32.1629 69.5639 32.1669H16.6529L17.8066 31.6303C18.9344 31.0965 19.9603 30.3701 20.8385 29.4838L35.6761 14.6462C37.6303 12.7808 37.9586 9.77993 36.4542 7.53601C34.7033 5.14486 31.3456 4.62568 28.9543 6.37658C28.7611 6.51811 28.5775 6.67239 28.4049 6.83841L1.57385 33.6695C-0.522995 35.764 -0.52484 39.1616 1.56966 41.2585C1.571 41.2598 1.57251 41.2613 1.57385 41.2626L28.4049 68.0937C30.5034 70.1863 33.9011 70.1817 35.9939 68.0831C36.1586 67.918 36.3123 67.7422 36.4542 67.5571C37.9586 65.3132 37.6303 62.3123 35.6761 60.4468L20.8654 45.5824C20.0781 44.7943 19.1728 44.1334 18.1823 43.6238L16.5724 42.8993H69.2686C72.0099 43.0011 74.415 41.0862 74.9299 38.3917C75.4043 35.4663 73.4175 32.7102 70.4921 32.2357Z" fill="white"/>
</g>
<defs>
<clipPath id="clip0">
<rect width="75" height="75" fill="white"/>
</clipPath>
</defs>
</svg>
