<svg width="120" height="120" viewBox="0 0 120 120" fill="none" xmlns="http://www.w3.org/2000/svg">
<g clip-path="url(#clip0)">
<path d="M76.5522 43.4762C74.9999 43.4762 73.7419 44.7342 73.7419 46.2865V99.4012C73.7419 100.952 74.9999 102.212 76.5522 102.212C78.1044 102.212 79.3625 100.952 79.3625 99.4012V46.2865C79.3625 44.7342 78.1044 43.4762 76.5522 43.4762Z" fill="#FF6262"/>
<path d="M43.3907 43.4762C41.8384 43.4762 40.5804 44.7342 40.5804 46.2865V99.4012C40.5804 100.952 41.8384 102.212 43.3907 102.212C44.9429 102.212 46.201 100.952 46.201 99.4012V46.2865C46.201 44.7342 44.9429 43.4762 43.3907 43.4762Z" fill="#FF6262"/>
<path d="M19.2221 35.7248V104.965C19.2221 109.057 20.7228 112.9 23.3443 115.658C25.9537 118.423 29.5851 119.993 33.3856 120H86.5573C90.3589 119.993 93.9903 118.423 96.5986 115.658C99.2201 112.9 100.721 109.057 100.721 104.965V35.7248C105.932 34.3416 109.309 29.3072 108.612 23.96C107.913 18.6138 103.359 14.6146 97.9664 14.6135H83.5779V11.1007C83.5944 8.14657 82.4264 5.30992 80.3351 3.22306C78.2438 1.13729 75.4028 -0.0241479 72.4487 3.03886e-06H47.4942C44.5401 -0.0241479 41.699 1.13729 39.6078 3.22306C37.5165 5.30992 36.3485 8.14657 36.365 11.1007V14.6135H21.9765C16.5842 14.6146 12.0295 18.6138 11.3314 23.96C10.6343 29.3072 14.011 34.3416 19.2221 35.7248V35.7248ZM86.5573 114.379H33.3856C28.5807 114.379 24.8427 110.251 24.8427 104.965V35.9718H95.1001V104.965C95.1001 110.251 91.3622 114.379 86.5573 114.379ZM41.9855 11.1007C41.9669 9.63734 42.5421 8.2289 43.5806 7.1959C44.618 6.16289 46.0297 5.59535 47.4942 5.62059H72.4487C73.9131 5.59535 75.3249 6.16289 76.3623 7.1959C77.4008 8.2278 77.976 9.63734 77.9573 11.1007V14.6135H41.9855V11.1007ZM21.9765 20.2341H97.9664C100.76 20.2341 103.025 22.4988 103.025 25.2927C103.025 28.0865 100.76 30.3512 97.9664 30.3512H21.9765C19.1826 30.3512 16.9179 28.0865 16.9179 25.2927C16.9179 22.4988 19.1826 20.2341 21.9765 20.2341V20.2341Z" fill="#FF6262"/>
<path d="M59.9715 43.4762C58.4192 43.4762 57.1612 44.7342 57.1612 46.2865V99.4012C57.1612 100.952 58.4192 102.212 59.9715 102.212C61.5237 102.212 62.7818 100.952 62.7818 99.4012V46.2865C62.7818 44.7342 61.5237 43.4762 59.9715 43.4762Z" fill="#FF6262"/>
</g>
<defs>
<clipPath id="clip0">
<rect width="120" height="120" fill="white"/>
</clipPath>
</defs>
</svg>
