<svg width="204" height="204" viewBox="0 0 204 204" fill="none" xmlns="http://www.w3.org/2000/svg">
<path d="M111.782 17.5952L111.8 17.6164L111.818 17.6374L112.039 17.8925C125.847 33.8752 142.015 52.5893 154.77 71.5482C167.687 90.7471 176.596 109.481 176.596 125.404C176.596 145.846 168.128 164.655 154.689 178.094L154.678 178.104L154.668 178.115C141.252 191.737 122.678 200 102 200C81.3468 200 62.7539 191.537 49.3108 178.094L49.3 178.083L49.2891 178.072C35.6675 164.657 27.4045 146.083 27.4045 125.404C27.4045 109.479 36.3153 90.6893 49.2312 71.4644C62.0508 52.3827 78.3224 33.5701 92.1696 17.6512C95.5983 13.7327 98.9283 9.9097 102.052 6.19756C102.152 6.31343 102.252 6.42952 102.352 6.54585C105.338 10.0144 108.5 13.687 111.782 17.5952Z" stroke="#5A92FF" stroke-width="8"/>
<path d="M46.836 180.568L46.8332 180.566C32.6675 166.615 24.0382 147.339 23.906 125.904H64H101L133.5 125.904L180.094 125.904C179.957 147.126 171.117 166.616 157.164 180.568L157.161 180.571C143.102 194.847 123.635 203.5 102 203.5C80.3682 203.5 60.8989 194.631 46.836 180.568Z" fill="#5A92FF" stroke="#5A92FF"/>
</svg>
