<svg width="396" height="396" viewBox="0 0 396 396" fill="none" xmlns="http://www.w3.org/2000/svg">
<g clip-path="url(#clip0)">
<path d="M315.237 67.8127C291.204 26.3379 248.516 0.999279 201.047 0.0309351C199.02 -0.0108305 196.981 -0.0108305 194.953 0.0309351C147.484 0.999279 104.797 26.3379 80.7631 67.8127C56.1972 110.206 55.5251 161.129 78.9649 204.033L177.163 383.77C177.207 383.849 177.251 383.929 177.297 384.008C181.617 391.517 189.357 396 198.002 396C206.645 396 214.385 391.516 218.705 384.008C218.751 383.929 218.795 383.849 218.839 383.77L317.037 204.033C340.475 161.129 339.803 110.206 315.237 67.8127V67.8127ZM198 179.438C167.294 179.438 142.312 154.456 142.312 123.75C142.312 93.0438 167.294 68.0625 198 68.0625C228.706 68.0625 253.687 93.0438 253.687 123.75C253.687 154.456 228.707 179.438 198 179.438Z" fill="white"/>
</g>
<defs>
<clipPath id="clip0">
<rect width="396" height="396" fill="white"/>
</clipPath>
</defs>
</svg>
