<svg width="48" height="49" viewBox="0 0 48 49" fill="none" xmlns="http://www.w3.org/2000/svg">
<path d="M1.53357 44.6312L12.9576 32.5021C10.0203 28.9376 8.41093 24.4527 8.41093 19.7837C8.41093 8.87515 17.105 0 27.7909 0C38.4769 0 47.1709 8.87515 47.1709 19.7837C47.1709 30.6923 38.4769 39.5675 27.7909 39.5675C23.7793 39.5675 19.9563 38.3323 16.6879 35.9875L5.17701 48.2087C4.69588 48.7187 4.04875 49 3.35529 49C2.6989 49 2.07621 48.7445 1.60351 48.28C0.599118 47.2934 0.567098 45.6574 1.53357 44.6312ZM27.7909 5.16097C19.8923 5.16097 13.4666 11.7206 13.4666 19.7837C13.4666 27.8469 19.8923 34.4065 27.7909 34.4065C35.6895 34.4065 42.1153 27.8469 42.1153 19.7837C42.1153 11.7206 35.6895 5.16097 27.7909 5.16097Z" fill="white"/>
</svg>
